PERFORMER "Alex Kidd"
TITLE "Essential Mix (2008-05-17) [TMB]"
FILE "2008-05-17 - EM - Alex Kidd.mp3" MP3
  TRACK 01 AUDIO
    PERFORMER "Essential Mix"
    TITLE "Intro"
    INDEX 01 00:00:00
  TRACK 02 AUDIO
    PERFORMER "Alex Kidd"
    TITLE "Authentic Life Of The Kidd"
    INDEX 01 01:45:33
  TRACK 03 AUDIO
    PERFORMER "DJ Zany"
    TITLE "Inflator"
    INDEX 01 02:37:08
  TRACK 04 AUDIO
    PERFORMER "Trentemøller feat. Anne Trolle"
    TITLE "Moan (Trentemøller Remix)"
    INDEX 01 03:51:48
  TRACK 05 AUDIO
    PERFORMER "Format B vs. Adam Beyer"
    TITLE "Knarzer Roller vs. China Girl"
    INDEX 01 05:42:34
  TRACK 06 AUDIO
    PERFORMER "Oxia vs. Kariya"
    TITLE "Domino vs. Let Me Love You For Tonight"
    INDEX 01 06:11:71
  TRACK 07 AUDIO
    PERFORMER "Claude VonStroke vs. Deadmau5 vs. Jelo"
    TITLE "Deep Throat vs. The Reward Is Cheese"
    INDEX 01 08:09:70
  TRACK 08 AUDIO
    PERFORMER "DJ Preach"
    TITLE "Broken Inside (2008 Remix)"
    INDEX 01 09:36:68
  TRACK 09 AUDIO
    PERFORMER "Sander van Doorn"
    TITLE "Grasshopper"
    INDEX 01 10:19:55
  TRACK 10 AUDIO
    PERFORMER "ID"
    TITLE "ID"
    INDEX 01 11:58:42
  TRACK 11 AUDIO
    PERFORMER "Joop"
    TITLE "Prominent (Leon Boiler Remix)"
    INDEX 01 13:50:69
  TRACK 12 AUDIO
    PERFORMER "Booka Shade"
    TITLE "In White Rooms"
    INDEX 01 14:46:64
  TRACK 13 AUDIO
    PERFORMER "Emma Townshend"
    TITLE "Five A-Side Football (AK47 Efx Chop Edit)"
    INDEX 01 15:16:40
  TRACK 14 AUDIO
    PERFORMER "Leftfield"
    TITLE "Phat Planet (Dave Clark Remix)"
    INDEX 01 16:10:47
  TRACK 15 AUDIO
    PERFORMER "Chris Liebing"
    TITLE "Bangbop"
    INDEX 01 19:32:05
  TRACK 16 AUDIO
    PERFORMER "Black Russian"
    TITLE "Unknown"
    INDEX 01 22:31:31
  TRACK 17 AUDIO
    PERFORMER "John Dahlbäck"
    TITLE "Blink (AK47 Live Efx Edit)"
    INDEX 01 23:26:32
  TRACK 18 AUDIO
    PERFORMER "Re-Ward vs. Sander van Doorn"
    TITLE "Show My Shuffle vs. Riff"
    INDEX 01 24:21:23
  TRACK 19 AUDIO
    PERFORMER "John Askew vs. ID"
    TITLE "The Advent Of Us vs. The Party's Gonna Be On"
    INDEX 01 28:26:74
  TRACK 20 AUDIO
    PERFORMER "Frank Biazzi"
    TITLE "Turbulence"
    INDEX 01 30:15:52
  TRACK 21 AUDIO
    PERFORMER "Motor"
    TITLE "Sweatbox (Chris Liebing Remix)"
    INDEX 01 32:04:11
  TRACK 22 AUDIO
    PERFORMER "Alex Kidd & BK"
    TITLE "Bass Loverz Part 1"
    INDEX 01 34:36:21
  TRACK 23 AUDIO
    PERFORMER "Richard Durand"
    TITLE "Submerge"
    INDEX 01 37:38:15
  TRACK 24 AUDIO
    PERFORMER "Joris Voorn"
    TITLE "MPX309"
    INDEX 01 38:52:10
  TRACK 25 AUDIO
    PERFORMER "Spiros Kaloumenos"
    TITLE "Faz (AK47 Live Efx Edit)"
    INDEX 01 40:39:34
  TRACK 26 AUDIO
    PERFORMER "Len Faki"
    TITLE "Just A Dance Part 2"
    INDEX 01 42:33:17
  TRACK 27 AUDIO
    PERFORMER "Glen Kob"
    TITLE "Unknown"
    INDEX 01 43:26:50
  TRACK 28 AUDIO
    PERFORMER "Tobias Luke a.k.a. O.B.I."
    TITLE "Soulkeeper"
    INDEX 01 44:53:34
  TRACK 29 AUDIO
    PERFORMER "Chris Liebing vs. Aly-Us"
    TITLE "Too Much Talk (Henrik B Remix) vs. Follow Me (AK47 Efx Chop Edit)"
    INDEX 01 45:33:34
  TRACK 30 AUDIO
    PERFORMER "Dark By Design & Dr. Willis"
    TITLE "God Of Abraham (Dave Forbes Changhi Remix) (Life Of The Kidd Re-Edit)"
    INDEX 01 48:06:51
  TRACK 31 AUDIO
    PERFORMER "Sander van Doorn"
    TITLE "The Bass"
    INDEX 01 50:53:10
  TRACK 32 AUDIO
    PERFORMER "Kamui"
    TITLE "Electro Slut"
    INDEX 01 54:02:44
  TRACK 33 AUDIO
    PERFORMER "Nick Larsson"
    TITLE "Barock"
    INDEX 01 55:22:20
  TRACK 34 AUDIO
    PERFORMER "Ralph Novell vs. Bas & Ram"
    TITLE "Powerstroke"
    INDEX 01 57:36:50
  TRACK 35 AUDIO
    PERFORMER "Alex Kidd"
    TITLE "Kiddfectious Radio"
    INDEX 01 60:53:12
  TRACK 36 AUDIO
    PERFORMER "Mojado"
    TITLE "Kactus (AK47 Live Efx Edit & John O'Callaghan Remix)"
    INDEX 01 62:09:14
  TRACK 37 AUDIO
    PERFORMER "Mr Sam vs. Human Resource"
    TITLE "Dominator"
    INDEX 01 66:21:22
  TRACK 38 AUDIO
    PERFORMER "Lenny Dee"
    TITLE "Express Yourself"
    INDEX 01 67:00:18
  TRACK 39 AUDIO
    PERFORMER "BK & Garbo"
    TITLE "Damage"
    INDEX 01 68:30:74
  TRACK 40 AUDIO
    PERFORMER "Kidd Kaos"
    TITLE "Sector 614"
    INDEX 01 70:27:50
  TRACK 41 AUDIO
    PERFORMER "Signum feat. Scott Mac"
    TITLE "Coming On Strong (Alex Kidd Remix)"
    INDEX 01 72:24:28
  TRACK 42 AUDIO
    PERFORMER "Dark By Design vs. Symtal"
    TITLE "Techno Terror"
    INDEX 01 74:40:12
  TRACK 43 AUDIO
    PERFORMER "Alex Kidd & Kidd Kaos"
    TITLE "Bass Loverz Ep Part 2"
    INDEX 01 80:23:06
  TRACK 44 AUDIO
    PERFORMER "Tori Amos vs. Electro Slut"
    TITLE "Professional Kiddo (Alex Kidd's Set Edit)"
    INDEX 01 83:23:32
  TRACK 45 AUDIO
    PERFORMER "Kidd Kaos"
    TITLE "Logical Contrast"
    INDEX 01 87:08:48
  TRACK 46 AUDIO
    PERFORMER "Asys vs. Chemical Brothers"
    TITLE "Do It In Acid (Alex Kidds Set Edit)"
    INDEX 01 88:57:72
  TRACK 47 AUDIO
    PERFORMER "BK & Alex Kidd"
    TITLE "Suicide"
    INDEX 01 91:21:61
  TRACK 48 AUDIO
    PERFORMER "dB Shredaz"
    TITLE "Escape"
    INDEX 01 91:53:65
  TRACK 49 AUDIO
    PERFORMER "Noisecontrollers"
    TITLE "Rushroom"
    INDEX 01 93:55:31
  TRACK 50 AUDIO
    PERFORMER "Organ Donors"
    TITLE "Made In 2 Days"
    INDEX 01 95:15:33
  TRACK 51 AUDIO
    PERFORMER "Walt"
    TITLE "Let The Music Play"
    INDEX 01 96:19:31
  TRACK 52 AUDIO
    PERFORMER "Hardstyle Masterz feat. Max Enforcer"
    TITLE "Light Of The Dark (The Blackout Mix)"
    INDEX 01 98:53:01
  TRACK 53 AUDIO
    PERFORMER "Citizen"
    TITLE "1980 (Alex Kidd Status Tribute Edit)"
    INDEX 01 101:41:01
  TRACK 54 AUDIO
    PERFORMER "BK & Alex Kidd"
    TITLE "Poison"
    INDEX 01 103:13:00
  TRACK 55 AUDIO
    PERFORMER "Dutch Masters"
    TITLE "Get Up"
    INDEX 01 105:37:52
  TRACK 56 AUDIO
    PERFORMER "Organ Donors & Alex Kidd"
    TITLE "Fantasy"
    INDEX 01 106:28:68
  TRACK 57 AUDIO
    PERFORMER "Showtek"
    TITLE "FTS (Fuck The System)"
    INDEX 01 110:06:36
  TRACK 58 AUDIO
    PERFORMER "Headhunterz"
    TITLE "Reloaded Part 2"
    INDEX 01 111:42:41
  TRACK 59 AUDIO
    PERFORMER "Organ Donors & Alex Kidd"
    TITLE "Boot It Up"
    INDEX 01 115:20:07